# xmcd
# 
# Track frame offsets:
#     150
#     18581
#     44045
#     68447
#     87862
#     109965
#     134395
#     167205
#     196747
#     225646
# 
# Disc length: 3455
# 
# Revision: 1
# Processed by: cddbd v1.5.2PL0 Copyright (c) Steve Scherf et al.
# Submitted via: fre:ac v1.0.17
# 
DISCID=830d7d0a
DTITLE=Various Artist - Essential Big Beat [CD2)
DYEAR=1999
DGENRE=Big Beats
TTITLE0=Coldcut - More Beats And Pieces
TTITLE1=Appleseed - Mile High Express (Original Trip)
TTITLE2=Natural Justice - Transuranic
TTITLE3=Robin Samples - Big Beat's Back
TTITLE4=The Knock - Inter X
TTITLE5=Hardwire - Conskank
TTITLE6=Mutiny - Good Shot (Walk The Plank Mix)
TTITLE7=Outcast - Take Heed
TTITLE8=Filter - Up and Up (Filtered Mix)
TTITLE9=Haden de Luxe - Boiling Point
EXTD=
EXTT0=
EXTT1=
EXTT2=
EXTT3=
EXTT4=
EXTT5=
EXTT6=
EXTT7=
EXTT8=
EXTT9=
PLAYORDER=
